HIERARCHY
ROOT Hips
{
	OFFSET 0.000000 0.000000 0.000000
	CHANNELS 6 Xposition Yposition Zposition Xrotation Yrotation Zrotation
	JOINT LeftUpLeg_virtual
	{
		OFFSET 0.000000 0.000000 0.000000
		CHANNELS 3 Xrotation Yrotation Zrotation
		JOINT LeftUpLeg
		{
			OFFSET 10.205400 -3.823500 0.155100
			CHANNELS 3 Xrotation Yrotation Zrotation
			JOINT LeftLeg
			{
				OFFSET 0.708757 -12.982077 0.567790
				CHANNELS 3 Xrotation Yrotation Zrotation
				JOINT LeftFoot
				{
					OFFSET -0.708756 -10.717838 -2.184338
					CHANNELS 3 Xrotation Yrotation Zrotation
					JOINT LeftToeBase
					{
						OFFSET 0.108149 -7.191104 7.560241
						CHANNELS 3 Xrotation Yrotation Zrotation
						JOINT LeftToe_End
						{
							OFFSET 0.070230 0.081724 4.490308
							CHANNELS 3 Xrotation Yrotation Zrotation
							End Site
							{
								OFFSET 0 0 0
							}
						}
					}
				}
			}
		}
	}
	JOINT RightUpLeg_virtual
	{
		OFFSET 0.000000 0.000000 0.000000
		CHANNELS 3 Xrotation Yrotation Zrotation
		JOINT RightUpLeg
		{
			OFFSET -10.205400 -3.823500 0.005500
			CHANNELS 3 Xrotation Yrotation Zrotation
			JOINT RightLeg
			{
				OFFSET -0.708756 -12.982134 0.610632
				CHANNELS 3 Xrotation Yrotation Zrotation
				JOINT RightFoot
				{
					OFFSET 0.708754 -10.717769 -1.945823
					CHANNELS 3 Xrotation Yrotation Zrotation
					JOINT RightToeBase
					{
						OFFSET -0.108140 -7.191069 7.372968
						CHANNELS 3 Xrotation Yrotation Zrotation
						JOINT RightToe_End
						{
							OFFSET -0.070227 0.081735 4.479403
							CHANNELS 3 Xrotation Yrotation Zrotation
							End Site
							{
								OFFSET 0 0 0
							}
						}
					}
				}
			}
		}
	}
	JOINT Spine_virtual
	{
		OFFSET 0.000000 0.000000 0.000000
		CHANNELS 3 Xrotation Yrotation Zrotation
		JOINT Spine
		{
			OFFSET 0.000000 6.876099 0.125700
			CHANNELS 3 Xrotation Yrotation Zrotation
			JOINT Spine1
			{
				OFFSET 0.000000 5.730043 0.104720
				CHANNELS 3 Xrotation Yrotation Zrotation
				JOINT Spine1_split
				{
					OFFSET 0.000000 5.730043 0.104720
					CHANNELS 3 Xrotation Yrotation Zrotation
					JOINT Spine2
					{
						OFFSET 0.000000 5.730043 0.104720
						CHANNELS 3 Xrotation Yrotation Zrotation
						JOINT Neck_virtual
						{
							OFFSET 0.000000 0.000000 0.000000
							CHANNELS 3 Xrotation Yrotation Zrotation
							JOINT Neck
							{
								OFFSET 0.000000 10.314075 0.188496
								CHANNELS 3 Xrotation Yrotation Zrotation
								JOINT Head
								{
									OFFSET 0.000000 7.643700 -2.377400
									CHANNELS 3 Xrotation Yrotation Zrotation
									JOINT HeadTop_End
									{
										OFFSET 0.000000 43.788605 -13.619600
										CHANNELS 3 Xrotation Yrotation Zrotation
										End Site
										{
											OFFSET 0 0 0
										}
									}
								}
							}
						}
						JOINT LeftShoulder_virtual
						{
							OFFSET 0.000000 0.000000 0.000000
							CHANNELS 3 Xrotation Yrotation Zrotation
							JOINT LeftShoulder
							{
								OFFSET 2.196100 4.412489 0.087492
								CHANNELS 3 Xrotation Yrotation Zrotation
								JOINT LeftShoulder_split
								{
									OFFSET 2.196100 4.412489 0.087492
									CHANNELS 3 Xrotation Yrotation Zrotation
									JOINT LeftArm
									{
										OFFSET 8.771219 -2.981674 -0.026999
										CHANNELS 3 Xrotation Yrotation Zrotation
										JOINT LeftForeArm
										{
											OFFSET 8.512804 0.000000 -0.000000
											CHANNELS 3 Xrotation Yrotation Zrotation
											JOINT LeftHand
											{
												OFFSET 18.484802 0.000000 -0.000000
												CHANNELS 3 Xrotation Yrotation Zrotation
												End Site
												{
													OFFSET 0 0 0
												}
											}
										}
									}
								}
							}
						}
						JOINT RightShoulder_virtual
						{
							OFFSET 0.000000 0.000000 0.000000
							CHANNELS 3 Xrotation Yrotation Zrotation
							JOINT RightShoulder
							{
								OFFSET -2.196100 4.412496 0.070690
								CHANNELS 3 Xrotation Yrotation Zrotation
								JOINT RightShoulder_split
								{
									OFFSET -2.196100 4.412496 0.070690
									CHANNELS 3 Xrotation Yrotation Zrotation
									JOINT RightArm
									{
										OFFSET -8.771282 -2.981682 -0.094208
										CHANNELS 3 Xrotation Yrotation Zrotation
										JOINT RightForeArm
										{
											OFFSET -8.494598 0.000000 0.000000
											CHANNELS 3 Xrotation Yrotation Zrotation
											JOINT RightHand
											{
												OFFSET -18.483803 0.000000 0.000001
												CHANNELS 3 Xrotation Yrotation Zrotation
												End Site
												{
													OFFSET 0 0 0
												}
											}
										}
									}
								}
							}
						}
					}
				}
			}
		}
	}
}
MOTION
Frames: 7
Frame Time: 0.03333333
1.547540 34.211979 -3.441797 0.000000 0.000000 0.000000 -3.540599 20.564216 0.982540 -17.275864 16.589776 13.460753 23.307283 2.477888 5.090874 -3.349702 -8.742724 -22.358202 -3.560183 -2.279894 2.280317 0.000000 0.000000 0.000000 -2.952427 20.802895 0.785936 18.800972 -10.058120 6.764832 7.174650 0.910919 -2.025160 -27.720456 -23.331281 12.582134 3.699611 0.566539 -17.588598 0.000000 0.000000 0.000000 -3.458376 21.731282 0.407801 3.163275 -2.694623 3.983406 -2.112744 0.316281 3.387357 0.087099 -0.128771 -0.067824 0.000000 0.000000 0.000000 -0.527743 3.294390 3.006407 20.245620 0.505115 1.344385 -3.300640 -23.797769 -13.472783 0.000000 0.000000 0.000000 -2.009484 1.441955 2.392572 -0.908238 -19.448115 -14.097981 1.611004 0.259485 -5.133627 11.626217 -1.916337 -66.550604 3.824823 -7.313932 3.989682 0.000000 0.000000 0.000000 -0.995517 1.817885 3.231866 2.959465 2.257706 17.293911 -4.389490 1.399714 -0.144615 23.586119 8.897702 55.538758 -2.604733 -3.767946 -0.643286 0.000000 0.000000 0.000000 
1.555181 34.237335 -3.434050 0.000000 0.000000 0.000000 -3.191470 19.941886 0.832277 -17.195078 16.891001 13.583616 22.955475 2.398990 4.791410 -3.586210 -8.047119 -22.236784 -3.228316 -2.308477 2.399654 0.000000 0.000000 0.000000 -2.616875 20.190159 0.633767 18.184072 -10.096261 6.589210 7.008238 0.943685 -1.955841 -27.030568 -22.650627 12.774704 3.278369 0.578292 -17.414433 0.000000 0.000000 0.000000 -2.999817 21.198341 0.213425 3.194466 -2.932421 4.095412 -2.249887 0.241623 3.383730 0.084574 -0.145439 -0.061787 0.000000 0.000000 0.000000 -0.609367 3.227141 3.011325 20.091456 0.518544 1.149412 -3.465652 -22.387448 -13.877766 0.000000 0.000000 0.000000 -2.148431 1.394053 2.365430 -0.941112 -19.683371 -14.416393 1.841060 0.262391 -4.826213 12.296624 -0.522517 -66.973263 3.816035 -7.798776 3.842988 0.000000 0.000000 0.000000 -1.019111 1.754154 3.235152 3.088947 1.546081 17.293795 -4.962982 1.425219 -0.143867 25.659224 9.072631 54.290312 -2.967960 -4.081719 -0.197966 0.000000 0.000000 0.000000 
1.557551 34.256660 -3.446669 0.000000 0.000000 0.000000 -2.853522 19.158148 0.627120 -17.069254 17.159209 13.769751 22.670120 2.333022 4.500925 -3.831790 -7.178041 -22.218942 -3.060087 -2.340603 2.466171 0.000000 0.000000 0.000000 -2.300329 19.423405 0.429847 17.550941 -10.158769 6.412401 6.839382 0.979135 -1.842880 -26.468926 -21.781296 12.836592 2.997468 0.569837 -17.177844 0.000000 0.000000 0.000000 -2.566011 20.495371 -0.031886 3.260231 -3.098379 4.214066 -2.317511 0.204082 3.395258 0.087599 -0.134920 -0.056503 0.000000 0.000000 0.000000 -0.655164 3.182671 3.039831 19.813202 0.551741 0.900128 -3.733524 -21.115204 -14.250613 0.000000 0.000000 0.000000 -2.222500 1.373805 2.349302 -0.943182 -19.837953 -14.620899 1.920113 0.266299 -4.552743 12.766265 0.438021 -67.524766 3.856835 -8.142467 3.771795 0.000000 0.000000 0.000000 -0.984056 1.739892 3.260933 3.152458 1.254864 17.334209 -5.617152 1.329320 -0.153779 26.261835 8.604891 53.249224 -3.318574 -4.920720 0.289443 0.000000 0.000000 0.000000 
1.555877 34.273914 -3.479927 0.000000 0.000000 0.000000 -2.522362 18.297513 0.386573 -16.913131 17.330985 13.971163 22.446437 2.272566 4.255957 -4.059332 -6.195608 -22.295623 -3.090708 -2.374438 2.444950 0.000000 0.000000 0.000000 -2.021322 18.565899 0.196988 16.917887 -10.243835 6.235014 6.639512 0.989340 -1.699921 -26.017961 -20.752895 12.761975 2.879915 0.525403 -16.864190 0.000000 0.000000 0.000000 -2.176060 19.664193 -0.301990 3.348467 -3.187392 4.322465 -2.317810 0.197779 3.398387 0.095566 -0.105418 -0.053938 0.000000 0.000000 0.000000 -0.671107 3.161669 3.067954 19.412656 0.630760 0.675553 -4.015354 -19.933716 -14.581732 0.000000 0.000000 0.000000 -2.228843 1.376016 2.317123 -0.908775 -19.911501 -14.699204 1.849712 0.245169 -4.326448 13.105410 0.801397 -68.089876 3.903345 -8.257016 3.747961 0.000000 0.000000 0.000000 -0.909105 1.770123 3.285638 3.138860 1.364272 17.449106 -6.066732 1.213769 -0.194359 25.482042 7.678450 52.519794 -3.581679 -5.951936 0.750521 0.000000 0.000000 0.000000 
1.555120 34.297821 -3.528461 0.000000 0.000000 0.000000 -2.201083 17.419907 0.131695 -16.690646 17.394236 14.119980 22.220458 2.222933 4.074909 -4.248109 -5.159713 -22.427363 -3.259102 -2.406724 2.318635 0.000000 0.000000 0.000000 -1.765721 17.647783 -0.041161 16.284433 -10.333364 6.043305 6.359101 0.991113 -1.534468 -25.557702 -19.601328 12.667477 2.758202 0.456300 -16.469454 0.000000 0.000000 0.000000 -1.845585 18.755872 -0.566916 3.437896 -3.218881 4.407304 -2.260219 0.206372 3.370476 0.103473 -0.083524 -0.057740 0.000000 0.000000 0.000000 -0.666890 3.149888 3.067535 18.924303 0.764862 0.555848 -4.188850 -18.848798 -14.859561 0.000000 0.000000 0.000000 -2.170877 1.386186 2.248028 -0.830188 -19.889636 -14.635765 1.685401 0.159262 -4.146978 13.337480 0.553507 -68.576581 3.870351 -8.156838 3.727981 0.000000 0.000000 0.000000 -0.799299 1.824441 3.276703 3.047833 1.760324 17.608072 -6.119298 1.157071 -0.301141 23.739472 6.686760 52.110003 -3.741299 -6.702844 1.139803 0.000000 0.000000 0.000000 
1.556586 34.333027 -3.595753 0.000000 0.000000 0.000000 -1.875096 16.570350 -0.110101 -16.414652 17.372504 14.192971 21.936671 2.190587 3.950106 -4.386292 -4.114909 -22.581697 -3.432506 -2.432764 2.084976 0.000000 0.000000 0.000000 -1.516897 16.702177 -0.265155 15.670146 -10.414114 5.825265 5.962596 0.986663 -1.360972 -24.972239 -18.366474 12.635037 2.485150 0.377083 -15.991187 0.000000 0.000000 0.000000 -1.552987 17.802982 -0.801675 3.506811 -3.217992 4.465337 -2.164241 0.204690 3.301632 0.103365 -0.072979 -0.063251 0.000000 0.000000 0.000000 -0.649551 3.131686 3.019829 18.383736 0.976445 0.553721 -4.205586 -17.872544 -15.058153 0.000000 0.000000 0.000000 -2.062707 1.390320 2.135708 -0.718385 -19.755144 -14.456201 1.485664 0.053736 -3.999081 13.502738 -0.171522 -68.926403 3.714446 -7.972679 3.688694 0.000000 0.000000 0.000000 -0.667237 1.873480 3.214779 2.883747 2.360006 17.758138 -5.742429 1.256681 -0.478930 21.555305 6.136843 51.975670 -3.791970 -6.815954 1.428488 0.000000 0.000000 0.000000 
1.559101 34.382439 -3.672180 0.000000 0.000000 0.000000 -1.554048 15.754729 -0.321451 -16.093205 17.314209 14.192421 21.545471 2.167092 3.869283 -4.434196 -3.122654 -22.738746 -3.570125 -2.454378 1.804123 0.000000 0.000000 0.000000 -1.260807 15.782615 -0.462531 15.116242 -10.466685 5.596482 5.445519 0.948243 -1.193158 -24.285902 -17.102507 12.609866 2.130489 0.279615 -15.429727 0.000000 0.000000 0.000000 -1.285296 16.871013 -1.003366 3.542019 -3.211482 4.488636 -2.044070 0.182272 3.194425 0.104466 -0.084002 -0.067102 0.000000 0.000000 0.000000 -0.617792 3.097573 2.932608 17.798969 1.268001 0.664195 -4.071334 -17.020760 -15.157185 0.000000 0.000000 0.000000 -1.926177 1.377585 1.989845 -0.584859 -19.529314 -14.200602 1.290780 -0.085716 -3.870911 13.641066 -1.212776 -69.124622 3.411727 -7.861211 3.620541 0.000000 0.000000 0.000000 -0.515389 1.897478 3.108393 2.660385 3.092344 17.842698 -5.145692 1.405776 -0.637046 19.331686 6.425014 52.056024 -3.760867 -6.284425 1.620658 0.000000 0.000000 0.000000 
